<?xml version="1.0" encoding="UTF-8" standalone="no"?>
<!DOCTYPE svg PUBLIC "-//W3C//DTD SVG 1.1//EN"
 "http://www.w3.org/Graphics/SVG/1.1/DTD/svg11.dtd">
<!-- Generated by graphviz version 2.43.0 (0)
 -->
<!-- Title: Tree Pages: 1 -->
<svg width="1345pt" height="433pt"
 viewBox="0.00 0.00 1345.00 433.00" xmlns="http://www.w3.org/2000/svg" xmlns:xlink="http://www.w3.org/1999/xlink">
<g id="graph0" class="graph" transform="scale(1 1) rotate(0) translate(4 429)">
<title>Tree</title>
<polygon fill="white" stroke="transparent" points="-4,4 -4,-429 1341,-429 1341,4 -4,4"/>
<!-- 0 -->
<g id="node1" class="node">
<title>0</title>
<path fill="#eca16c" stroke="black" d="M728,-425C728,-425 558,-425 558,-425 552,-425 546,-419 546,-413 546,-413 546,-354 546,-354 546,-348 552,-342 558,-342 558,-342 728,-342 728,-342 734,-342 740,-348 740,-354 740,-354 740,-413 740,-413 740,-419 734,-425 728,-425"/>
<text text-anchor="start" x="598" y="-409.8" font-family="Helvetica,sans-Serif" font-size="14.00">ASTV ≤ 59.5</text>
<text text-anchor="start" x="599" y="-394.8" font-family="Helvetica,sans-Serif" font-size="14.00">gini = 0.368</text>
<text text-anchor="start" x="585.5" y="-379.8" font-family="Helvetica,sans-Serif" font-size="14.00">samples = 2126</text>
<text text-anchor="start" x="554" y="-364.8" font-family="Helvetica,sans-Serif" font-size="14.00">value = [1655, 295, 176]</text>
<text text-anchor="start" x="609.5" y="-349.8" font-family="Helvetica,sans-Serif" font-size="14.00">class = N</text>
</g>
<!-- 1 -->
<g id="node2" class="node">
<title>1</title>
<path fill="#e78a48" stroke="black" d="M568,-306C568,-306 416,-306 416,-306 410,-306 404,-300 404,-294 404,-294 404,-235 404,-235 404,-229 410,-223 416,-223 416,-223 568,-223 568,-223 574,-223 580,-229 580,-235 580,-235 580,-294 580,-294 580,-300 574,-306 568,-306"/>
<text text-anchor="start" x="431.5" y="-290.8" font-family="Helvetica,sans-Serif" font-size="14.00">Variance ≤ 102.0</text>
<text text-anchor="start" x="448" y="-275.8" font-family="Helvetica,sans-Serif" font-size="14.00">gini = 0.134</text>
<text text-anchor="start" x="434.5" y="-260.8" font-family="Helvetica,sans-Serif" font-size="14.00">samples = 1500</text>
<text text-anchor="start" x="412" y="-245.8" font-family="Helvetica,sans-Serif" font-size="14.00">value = [1393, 80, 27]</text>
<text text-anchor="start" x="458.5" y="-230.8" font-family="Helvetica,sans-Serif" font-size="14.00">class = N</text>
</g>
<!-- 0&#45;&gt;1 -->
<g id="edge1" class="edge">
<title>0&#45;&gt;1</title>
<path fill="none" stroke="black" d="M590.61,-341.91C578.31,-332.38 565.11,-322.15 552.49,-312.37"/>
<polygon fill="black" stroke="black" points="554.34,-309.38 544.3,-306.02 550.06,-314.91 554.34,-309.38"/>
<text text-anchor="middle" x="547.44" y="-327.12" font-family="Helvetica,sans-Serif" font-size="14.00">True</text>
</g>
<!-- 8 -->
<g id="node9" class="node">
<title>8</title>
<path fill="#fcf1e8" stroke="black" d="M906.5,-306C906.5,-306 745.5,-306 745.5,-306 739.5,-306 733.5,-300 733.5,-294 733.5,-294 733.5,-235 733.5,-235 733.5,-229 739.5,-223 745.5,-223 745.5,-223 906.5,-223 906.5,-223 912.5,-223 918.5,-229 918.5,-235 918.5,-235 918.5,-294 918.5,-294 918.5,-300 912.5,-306 906.5,-306"/>
<text text-anchor="start" x="787" y="-290.8" font-family="Helvetica,sans-Serif" font-size="14.00">ALTV ≤ 6.5</text>
<text text-anchor="start" x="786.5" y="-275.8" font-family="Helvetica,sans-Serif" font-size="14.00">gini = 0.65</text>
<text text-anchor="start" x="773" y="-260.8" font-family="Helvetica,sans-Serif" font-size="14.00">samples = 626</text>
<text text-anchor="start" x="741.5" y="-245.8" font-family="Helvetica,sans-Serif" font-size="14.00">value = [262, 215, 149]</text>
<text text-anchor="start" x="792.5" y="-230.8" font-family="Helvetica,sans-Serif" font-size="14.00">class = N</text>
</g>
<!-- 0&#45;&gt;8 -->
<g id="edge8" class="edge">
<title>0&#45;&gt;8</title>
<path fill="none" stroke="black" d="M706.49,-341.91C721.82,-332.11 738.31,-321.56 754,-311.53"/>
<polygon fill="black" stroke="black" points="756.08,-314.36 762.62,-306.02 752.31,-308.46 756.08,-314.36"/>
<text text-anchor="middle" x="757.25" y="-326.74" font-family="Helvetica,sans-Serif" font-size="14.00">False</text>
</g>
<!-- 2 -->
<g id="node3" class="node">
<title>2</title>
<path fill="#e78946" stroke="black" d="M336,-187C336,-187 184,-187 184,-187 178,-187 172,-181 172,-175 172,-175 172,-116 172,-116 172,-110 178,-104 184,-104 184,-104 336,-104 336,-104 342,-104 348,-110 348,-116 348,-116 348,-175 348,-175 348,-181 342,-187 336,-187"/>
<text text-anchor="start" x="216.5" y="-171.8" font-family="Helvetica,sans-Serif" font-size="14.00">ALTV ≤ 60.5</text>
<text text-anchor="start" x="216" y="-156.8" font-family="Helvetica,sans-Serif" font-size="14.00">gini = 0.115</text>
<text text-anchor="start" x="202.5" y="-141.8" font-family="Helvetica,sans-Serif" font-size="14.00">samples = 1467</text>
<text text-anchor="start" x="180" y="-126.8" font-family="Helvetica,sans-Serif" font-size="14.00">value = [1378, 77, 12]</text>
<text text-anchor="start" x="226.5" y="-111.8" font-family="Helvetica,sans-Serif" font-size="14.00">class = N</text>
</g>
<!-- 1&#45;&gt;2 -->
<g id="edge2" class="edge">
<title>1&#45;&gt;2</title>
<path fill="none" stroke="black" d="M411.51,-222.91C391.44,-212.79 369.81,-201.88 349.35,-191.56"/>
<polygon fill="black" stroke="black" points="350.85,-188.4 340.35,-187.02 347.7,-194.65 350.85,-188.4"/>
</g>
<!-- 5 -->
<g id="node6" class="node">
<title>5</title>
<path fill="#ffffff" stroke="black" d="M554.5,-187C554.5,-187 429.5,-187 429.5,-187 423.5,-187 417.5,-181 417.5,-175 417.5,-175 417.5,-116 417.5,-116 417.5,-110 423.5,-104 429.5,-104 429.5,-104 554.5,-104 554.5,-104 560.5,-104 566.5,-110 566.5,-116 566.5,-116 566.5,-175 566.5,-175 566.5,-181 560.5,-187 554.5,-187"/>
<text text-anchor="start" x="447" y="-171.8" font-family="Helvetica,sans-Serif" font-size="14.00">ASTV ≤ 25.5</text>
<text text-anchor="start" x="448" y="-156.8" font-family="Helvetica,sans-Serif" font-size="14.00">gini = 0.579</text>
<text text-anchor="start" x="443.5" y="-141.8" font-family="Helvetica,sans-Serif" font-size="14.00">samples = 33</text>
<text text-anchor="start" x="425.5" y="-126.8" font-family="Helvetica,sans-Serif" font-size="14.00">value = [15, 3, 15]</text>
<text text-anchor="start" x="458.5" y="-111.8" font-family="Helvetica,sans-Serif" font-size="14.00">class = N</text>
</g>
<!-- 1&#45;&gt;5 -->
<g id="edge5" class="edge">
<title>1&#45;&gt;5</title>
<path fill="none" stroke="black" d="M492,-222.91C492,-214.65 492,-205.86 492,-197.3"/>
<polygon fill="black" stroke="black" points="495.5,-197.02 492,-187.02 488.5,-197.02 495.5,-197.02"/>
</g>
<!-- 3 -->
<g id="node4" class="node">
<title>3</title>
<path fill="#e78845" stroke="black" d="M164,-68C164,-68 12,-68 12,-68 6,-68 0,-62 0,-56 0,-56 0,-12 0,-12 0,-6 6,0 12,0 12,0 164,0 164,0 170,0 176,-6 176,-12 176,-12 176,-56 176,-56 176,-62 170,-68 164,-68"/>
<text text-anchor="start" x="44" y="-52.8" font-family="Helvetica,sans-Serif" font-size="14.00">gini = 0.106</text>
<text text-anchor="start" x="30.5" y="-37.8" font-family="Helvetica,sans-Serif" font-size="14.00">samples = 1459</text>
<text text-anchor="start" x="8" y="-22.8" font-family="Helvetica,sans-Serif" font-size="14.00">value = [1378, 70, 11]</text>
<text text-anchor="start" x="54.5" y="-7.8" font-family="Helvetica,sans-Serif" font-size="14.00">class = N</text>
</g>
<!-- 2&#45;&gt;3 -->
<g id="edge3" class="edge">
<title>2&#45;&gt;3</title>
<path fill="none" stroke="black" d="M195.95,-103.73C180.54,-93.92 164.13,-83.46 148.87,-73.75"/>
<polygon fill="black" stroke="black" points="150.35,-70.54 140.03,-68.13 146.59,-76.45 150.35,-70.54"/>
</g>
<!-- 4 -->
<g id="node5" class="node">
<title>4</title>
<path fill="#55e993" stroke="black" d="M313.5,-68C313.5,-68 206.5,-68 206.5,-68 200.5,-68 194.5,-62 194.5,-56 194.5,-56 194.5,-12 194.5,-12 194.5,-6 200.5,0 206.5,0 206.5,0 313.5,0 313.5,0 319.5,0 325.5,-6 325.5,-12 325.5,-12 325.5,-56 325.5,-56 325.5,-62 319.5,-68 313.5,-68"/>
<text text-anchor="start" x="216" y="-52.8" font-family="Helvetica,sans-Serif" font-size="14.00">gini = 0.219</text>
<text text-anchor="start" x="216" y="-37.8" font-family="Helvetica,sans-Serif" font-size="14.00">samples = 8</text>
<text text-anchor="start" x="202.5" y="-22.8" font-family="Helvetica,sans-Serif" font-size="14.00">value = [0, 7, 1]</text>
<text text-anchor="start" x="227.5" y="-7.8" font-family="Helvetica,sans-Serif" font-size="14.00">class = S</text>
</g>
<!-- 2&#45;&gt;4 -->
<g id="edge4" class="edge">
<title>2&#45;&gt;4</title>
<path fill="none" stroke="black" d="M260,-103.73C260,-95.52 260,-86.86 260,-78.56"/>
<polygon fill="black" stroke="black" points="263.5,-78.3 260,-68.3 256.5,-78.3 263.5,-78.3"/>
</g>
<!-- 6 -->
<g id="node7" class="node">
<title>6</title>
<path fill="#e58139" stroke="black" d="M462.5,-68C462.5,-68 355.5,-68 355.5,-68 349.5,-68 343.5,-62 343.5,-56 343.5,-56 343.5,-12 343.5,-12 343.5,-6 349.5,0 355.5,0 355.5,0 462.5,0 462.5,0 468.5,0 474.5,-6 474.5,-12 474.5,-12 474.5,-56 474.5,-56 474.5,-62 468.5,-68 462.5,-68"/>
<text text-anchor="start" x="374" y="-52.8" font-family="Helvetica,sans-Serif" font-size="14.00">gini = 0.0</text>
<text text-anchor="start" x="365" y="-37.8" font-family="Helvetica,sans-Serif" font-size="14.00">samples = 4</text>
<text text-anchor="start" x="351.5" y="-22.8" font-family="Helvetica,sans-Serif" font-size="14.00">value = [4, 0, 0]</text>
<text text-anchor="start" x="375.5" y="-7.8" font-family="Helvetica,sans-Serif" font-size="14.00">class = N</text>
</g>
<!-- 5&#45;&gt;6 -->
<g id="edge6" class="edge">
<title>5&#45;&gt;6</title>
<path fill="none" stroke="black" d="M461.09,-103.73C454.32,-94.79 447.14,-85.32 440.35,-76.36"/>
<polygon fill="black" stroke="black" points="443.07,-74.15 434.24,-68.3 437.49,-78.38 443.07,-74.15"/>
</g>
<!-- 7 -->
<g id="node8" class="node">
<title>7</title>
<path fill="#e3d3f9" stroke="black" d="M629.5,-68C629.5,-68 504.5,-68 504.5,-68 498.5,-68 492.5,-62 492.5,-56 492.5,-56 492.5,-12 492.5,-12 492.5,-6 498.5,0 504.5,0 504.5,0 629.5,0 629.5,0 635.5,0 641.5,-6 641.5,-12 641.5,-12 641.5,-56 641.5,-56 641.5,-62 635.5,-68 629.5,-68"/>
<text text-anchor="start" x="523" y="-52.8" font-family="Helvetica,sans-Serif" font-size="14.00">gini = 0.578</text>
<text text-anchor="start" x="518.5" y="-37.8" font-family="Helvetica,sans-Serif" font-size="14.00">samples = 29</text>
<text text-anchor="start" x="500.5" y="-22.8" font-family="Helvetica,sans-Serif" font-size="14.00">value = [11, 3, 15]</text>
<text text-anchor="start" x="535" y="-7.8" font-family="Helvetica,sans-Serif" font-size="14.00">class = P</text>
</g>
<!-- 5&#45;&gt;7 -->
<g id="edge7" class="edge">
<title>5&#45;&gt;7</title>
<path fill="none" stroke="black" d="M519.93,-103.73C525.99,-94.88 532.4,-85.51 538.49,-76.63"/>
<polygon fill="black" stroke="black" points="541.43,-78.53 544.19,-68.3 535.65,-74.57 541.43,-78.53"/>
</g>
<!-- 9 -->
<g id="node10" class="node">
<title>9</title>
<path fill="#f1bd97" stroke="black" d="M897.5,-187C897.5,-187 754.5,-187 754.5,-187 748.5,-187 742.5,-181 742.5,-175 742.5,-175 742.5,-116 742.5,-116 742.5,-110 748.5,-104 754.5,-104 754.5,-104 897.5,-104 897.5,-104 903.5,-104 909.5,-110 909.5,-116 909.5,-116 909.5,-175 909.5,-175 909.5,-181 903.5,-187 897.5,-187"/>
<text text-anchor="start" x="770" y="-171.8" font-family="Helvetica,sans-Serif" font-size="14.00">Variance ≤ 38.5</text>
<text text-anchor="start" x="782" y="-156.8" font-family="Helvetica,sans-Serif" font-size="14.00">gini = 0.475</text>
<text text-anchor="start" x="773" y="-141.8" font-family="Helvetica,sans-Serif" font-size="14.00">samples = 311</text>
<text text-anchor="start" x="750.5" y="-126.8" font-family="Helvetica,sans-Serif" font-size="14.00">value = [206, 15, 90]</text>
<text text-anchor="start" x="792.5" y="-111.8" font-family="Helvetica,sans-Serif" font-size="14.00">class = N</text>
</g>
<!-- 8&#45;&gt;9 -->
<g id="edge9" class="edge">
<title>8&#45;&gt;9</title>
<path fill="none" stroke="black" d="M826,-222.91C826,-214.65 826,-205.86 826,-197.3"/>
<polygon fill="black" stroke="black" points="829.5,-197.02 826,-187.02 822.5,-197.02 829.5,-197.02"/>
</g>
<!-- 12 -->
<g id="node13" class="node">
<title>12</title>
<path fill="#92f1ba" stroke="black" d="M1166.5,-187C1166.5,-187 1023.5,-187 1023.5,-187 1017.5,-187 1011.5,-181 1011.5,-175 1011.5,-175 1011.5,-116 1011.5,-116 1011.5,-110 1017.5,-104 1023.5,-104 1023.5,-104 1166.5,-104 1166.5,-104 1172.5,-104 1178.5,-110 1178.5,-116 1178.5,-116 1178.5,-175 1178.5,-175 1178.5,-181 1172.5,-187 1166.5,-187"/>
<text text-anchor="start" x="1051.5" y="-171.8" font-family="Helvetica,sans-Serif" font-size="14.00">ALTV ≤ 68.5</text>
<text text-anchor="start" x="1055.5" y="-156.8" font-family="Helvetica,sans-Serif" font-size="14.00">gini = 0.53</text>
<text text-anchor="start" x="1042" y="-141.8" font-family="Helvetica,sans-Serif" font-size="14.00">samples = 315</text>
<text text-anchor="start" x="1019.5" y="-126.8" font-family="Helvetica,sans-Serif" font-size="14.00">value = [56, 200, 59]</text>
<text text-anchor="start" x="1062.5" y="-111.8" font-family="Helvetica,sans-Serif" font-size="14.00">class = S</text>
</g>
<!-- 8&#45;&gt;12 -->
<g id="edge12" class="edge">
<title>8&#45;&gt;12</title>
<path fill="none" stroke="black" d="M918.57,-223.24C945.49,-211.53 974.9,-198.74 1001.85,-187.01"/>
<polygon fill="black" stroke="black" points="1003.5,-190.11 1011.28,-182.92 1000.71,-183.69 1003.5,-190.11"/>
</g>
<!-- 10 -->
<g id="node11" class="node">
<title>10</title>
<path fill="#eb9c64" stroke="black" d="M814.5,-68C814.5,-68 671.5,-68 671.5,-68 665.5,-68 659.5,-62 659.5,-56 659.5,-56 659.5,-12 659.5,-12 659.5,-6 665.5,0 671.5,0 671.5,0 814.5,0 814.5,0 820.5,0 826.5,-6 826.5,-12 826.5,-12 826.5,-56 826.5,-56 826.5,-62 820.5,-68 814.5,-68"/>
<text text-anchor="start" x="699" y="-52.8" font-family="Helvetica,sans-Serif" font-size="14.00">gini = 0.322</text>
<text text-anchor="start" x="690" y="-37.8" font-family="Helvetica,sans-Serif" font-size="14.00">samples = 228</text>
<text text-anchor="start" x="667.5" y="-22.8" font-family="Helvetica,sans-Serif" font-size="14.00">value = [185, 15, 28]</text>
<text text-anchor="start" x="709.5" y="-7.8" font-family="Helvetica,sans-Serif" font-size="14.00">class = N</text>
</g>
<!-- 9&#45;&gt;10 -->
<g id="edge10" class="edge">
<title>9&#45;&gt;10</title>
<path fill="none" stroke="black" d="M795.09,-103.73C788.32,-94.79 781.14,-85.32 774.35,-76.36"/>
<polygon fill="black" stroke="black" points="777.07,-74.15 768.24,-68.3 771.49,-78.38 777.07,-74.15"/>
</g>
<!-- 11 -->
<g id="node12" class="node">
<title>11</title>
<path fill="#ac7cee" stroke="black" d="M981.5,-68C981.5,-68 856.5,-68 856.5,-68 850.5,-68 844.5,-62 844.5,-56 844.5,-56 844.5,-12 844.5,-12 844.5,-6 850.5,0 856.5,0 856.5,0 981.5,0 981.5,0 987.5,0 993.5,-6 993.5,-12 993.5,-12 993.5,-56 993.5,-56 993.5,-62 987.5,-68 981.5,-68"/>
<text text-anchor="start" x="875" y="-52.8" font-family="Helvetica,sans-Serif" font-size="14.00">gini = 0.378</text>
<text text-anchor="start" x="870.5" y="-37.8" font-family="Helvetica,sans-Serif" font-size="14.00">samples = 83</text>
<text text-anchor="start" x="852.5" y="-22.8" font-family="Helvetica,sans-Serif" font-size="14.00">value = [21, 0, 62]</text>
<text text-anchor="start" x="887" y="-7.8" font-family="Helvetica,sans-Serif" font-size="14.00">class = P</text>
</g>
<!-- 9&#45;&gt;11 -->
<g id="edge11" class="edge">
<title>9&#45;&gt;11</title>
<path fill="none" stroke="black" d="M860.63,-103.73C868.3,-94.7 876.43,-85.12 884.11,-76.08"/>
<polygon fill="black" stroke="black" points="886.91,-78.19 890.72,-68.3 881.58,-73.66 886.91,-78.19"/>
</g>
<!-- 13 -->
<g id="node14" class="node">
<title>13</title>
<path fill="#78eda9" stroke="black" d="M1166.5,-68C1166.5,-68 1023.5,-68 1023.5,-68 1017.5,-68 1011.5,-62 1011.5,-56 1011.5,-56 1011.5,-12 1011.5,-12 1011.5,-6 1017.5,0 1023.5,0 1023.5,0 1166.5,0 1166.5,0 1172.5,0 1178.5,-6 1178.5,-12 1178.5,-12 1178.5,-56 1178.5,-56 1178.5,-62 1172.5,-68 1166.5,-68"/>
<text text-anchor="start" x="1051" y="-52.8" font-family="Helvetica,sans-Serif" font-size="14.00">gini = 0.406</text>
<text text-anchor="start" x="1042" y="-37.8" font-family="Helvetica,sans-Serif" font-size="14.00">samples = 269</text>
<text text-anchor="start" x="1019.5" y="-22.8" font-family="Helvetica,sans-Serif" font-size="14.00">value = [52, 200, 17]</text>
<text text-anchor="start" x="1062.5" y="-7.8" font-family="Helvetica,sans-Serif" font-size="14.00">class = S</text>
</g>
<!-- 12&#45;&gt;13 -->
<g id="edge13" class="edge">
<title>12&#45;&gt;13</title>
<path fill="none" stroke="black" d="M1095,-103.73C1095,-95.52 1095,-86.86 1095,-78.56"/>
<polygon fill="black" stroke="black" points="1098.5,-78.3 1095,-68.3 1091.5,-78.3 1098.5,-78.3"/>
</g>
<!-- 14 -->
<g id="node15" class="node">
<title>14</title>
<path fill="#8d4ce7" stroke="black" d="M1325,-68C1325,-68 1209,-68 1209,-68 1203,-68 1197,-62 1197,-56 1197,-56 1197,-12 1197,-12 1197,-6 1203,0 1209,0 1209,0 1325,0 1325,0 1331,0 1337,-6 1337,-12 1337,-12 1337,-56 1337,-56 1337,-62 1331,-68 1325,-68"/>
<text text-anchor="start" x="1223" y="-52.8" font-family="Helvetica,sans-Serif" font-size="14.00">gini = 0.159</text>
<text text-anchor="start" x="1218.5" y="-37.8" font-family="Helvetica,sans-Serif" font-size="14.00">samples = 46</text>
<text text-anchor="start" x="1205" y="-22.8" font-family="Helvetica,sans-Serif" font-size="14.00">value = [4, 0, 42]</text>
<text text-anchor="start" x="1235" y="-7.8" font-family="Helvetica,sans-Serif" font-size="14.00">class = P</text>
</g>
<!-- 12&#45;&gt;14 -->
<g id="edge14" class="edge">
<title>12&#45;&gt;14</title>
<path fill="none" stroke="black" d="M1159.05,-103.73C1174.46,-93.92 1190.87,-83.46 1206.13,-73.75"/>
<polygon fill="black" stroke="black" points="1208.41,-76.45 1214.97,-68.13 1204.65,-70.54 1208.41,-76.45"/>
</g>
</g>
</svg>
